<?xml version="1.0" encoding="UTF-8" standalone="no"?>
<svg
   xmlns:dc="http://purl.org/dc/elements/1.1/"
   xmlns:cc="http://creativecommons.org/ns#"
   xmlns:rdf="http://www.w3.org/1999/02/22-rdf-syntax-ns#"
   xmlns:svg="http://www.w3.org/2000/svg"
   xmlns="http://www.w3.org/2000/svg"
   viewBox="0 0 1809.2267 1170.0453"
   height="1170.0453"
   width="1809.2267"
   xml:space="preserve"
   id="svg2"
   version="1.1"><metadata
     id="metadata8"><rdf:RDF><cc:Work
         rdf:about=""><dc:format>image/svg+xml</dc:format><dc:type
           rdf:resource="http://purl.org/dc/dcmitype/StillImage" /></cc:Work></rdf:RDF></metadata><defs
     id="defs6"><clipPath
       id="clipPath18"
       clipPathUnits="userSpaceOnUse"><path
         id="path16"
         d="M 0,877.534 H 1356.918 V 0 H 0 Z" /></clipPath></defs><g
     transform="matrix(1.3333333,0,0,-1.3333333,0,1170.0453)"
     id="g10"><g
       id="g12"><g
         clip-path="url(#clipPath18)"
         id="g14"><g
           transform="translate(729.0995,50.4917)"
           id="g20"><path
             id="path22"
             style="fill:#282830;fill-opacity:1;fill-rule:nonzero;stroke:none"
             d="m 0,0 c 67.593,50.152 116.573,198.016 116.573,372.628 0,6.89 -0.077,13.738 -0.228,20.541 196.036,29.405 336.578,109.127 336.578,202.862 0,4.268 -0.301,8.505 -0.875,12.711 49.901,-59.955 78.49,-129.646 78.49,-204.007 C 530.538,192.29 297.262,17.937 0,0 m -631.819,404.735 c 0,74.361 28.59,144.052 78.491,204.007 -0.575,-4.206 -0.876,-8.443 -0.876,-12.711 0,-93.735 140.542,-173.457 336.578,-202.862 -0.15,-6.803 -0.228,-13.651 -0.228,-20.541 0,-174.612 48.98,-322.476 116.573,-372.628 -297.262,17.937 -530.538,192.29 -530.538,404.735 M -50.64,763.509 c -72.848,0 -134.814,-108.895 -157.738,-260.848 -137.959,21.544 -234.288,70.482 -234.288,127.406 0,76.839 175.516,139.128 392.026,139.128 216.509,0 392.025,-62.289 392.025,-139.128 0,-56.924 -96.329,-105.862 -234.288,-127.406 C 84.173,654.614 22.207,763.509 -50.64,763.509 m -97.179,-268.261 c 15.173,97.611 52.96,166.763 97.179,166.763 44.218,0 82.005,-69.152 97.179,-166.763 -31.076,-2.813 -63.635,-4.309 -97.179,-4.309 -33.545,0 -66.103,1.496 -97.179,4.309 M -50.64,137.861 c -55.696,0 -101.192,109.706 -104.14,247.812 33.603,-3.016 68.436,-4.606 104.14,-4.606 35.704,0 70.536,1.59 104.139,4.606 C 50.551,247.567 5.055,137.861 -50.64,137.861 m 0,689.181 c -374.703,0 -678.46,-196.443 -678.46,-438.767 0,-242.324 303.757,-438.767 678.46,-438.767 374.702,0 678.459,196.443 678.459,438.767 0,242.324 -303.757,438.767 -678.459,438.767" /></g></g></g></g></svg>